<?xml version="1.0" encoding="utf-8"?>
<!-- Generator: Adobe Illustrator 24.1.2, SVG Export Plug-In . SVG Version: 6.00 Build 0)  -->
<svg version="1.1" id="Слой_1" xmlns="http://www.w3.org/2000/svg" xmlns:xlink="http://www.w3.org/1999/xlink" x="0px" y="0px"
	 viewBox="0 0 66 66" style="enable-background:new 0 0 66 66;" xml:space="preserve">
<a href="https://instagram.com/in_english_pls_?igshid=YmMyMTA2M2Y=">
<style type="text/css">
	.st0{fill:none;stroke:#FFFFFF;stroke-miterlimit:10;}
</style>
<g>
	<circle class="st0" cx="33.4" cy="32.66" r="30.59"/>
	<path class="st0" d="M27.23,17.72c-4.77,0-8.65,3.88-8.65,8.66v12.36c0,4.77,3.88,8.65,8.66,8.65H39.6c4.77,0,8.65-3.88,8.65-8.66
		V26.37c0-4.77-3.88-8.65-8.66-8.65H27.23z M42.07,22.67c0.68,0,1.24,0.55,1.24,1.24c0,0.68-0.55,1.24-1.24,1.24
		c-0.68,0-1.24-0.55-1.24-1.24C40.83,23.22,41.39,22.67,42.07,22.67z M33.41,25.14c4.09,0,7.42,3.33,7.42,7.42s-3.33,7.42-7.42,7.42
		S26,36.65,26,32.56S29.32,25.14,33.41,25.14z M33.41,27.61c-2.73,0-4.95,2.21-4.95,4.95s2.21,4.95,4.95,4.95s4.95-2.21,4.95-4.95
		S36.15,27.61,33.41,27.61z"/>
</g>
</a>
</svg>
