<svg width="224" height="222" viewBox="0 0 224 222" fill="none" xmlns="http://www.w3.org/2000/svg">
<path d="M38.3952 137.558L36.7036 138.079L36.3006 136.79C36.1632 136.351 35.9375 136.065 35.6233 135.932C35.3032 135.779 34.8528 135.646 34.2723 135.532L32.131 135.218L19.4775 148.627L18.7878 146.422L29.8088 134.929L14.5512 132.88L13.8973 130.79L34.7634 133.685C35.6665 133.826 36.3528 134.043 36.8222 134.338C37.2916 134.633 37.6398 135.143 37.8667 135.868L38.3952 137.558Z" fill="#888888"/>
<path d="M33.5617 113.168L24.4196 114.001C24.6593 114.421 24.8955 114.912 25.1282 115.473C25.3609 116.034 25.5683 116.648 25.7504 117.314C25.9127 117.982 26.0297 118.705 26.1016 119.481C26.319 121.831 25.9714 123.61 25.0588 124.818C24.1263 126.027 22.5446 126.734 20.3139 126.937L13.5021 127.558L13.3141 125.526L19.8869 124.927C21.5401 124.777 22.7082 124.269 23.3914 123.403C24.0727 122.518 24.3295 121.169 24.1619 119.357C24.0679 118.341 23.8671 117.365 23.5596 116.429C23.2502 115.473 22.9095 114.721 22.5374 114.173L12.3495 115.101L12.1616 113.069L33.3738 111.137L33.5617 113.168Z" fill="#888888"/>
<path d="M33.2801 109.75L12.1256 107.265L12.371 105.209L30.6652 107.358L13.936 92.1022L14.1672 90.166L35.3217 92.6513L35.0763 94.7067L17.1099 92.5959L33.5291 107.665L33.2801 109.75Z" fill="#888888"/>
<path d="M22.4391 70.95L19.9818 78.1312L38.4043 84.3382L37.7244 86.3251L19.302 80.1181L16.8447 87.2993L15.0821 86.7055L20.6765 70.3561L22.4391 70.95Z" fill="#888888"/>
<path d="M40.8937 75.6385L22.5523 64.8087L23.6323 63.0077L30.7622 67.2176L33.5393 62.5865C34.3313 61.2658 35.2221 60.3053 36.2117 59.7051C37.2012 59.1049 38.2465 58.8395 39.3475 58.9089C40.4588 58.9613 41.5742 59.3179 42.6936 59.9789C43.7097 60.5788 44.5197 61.3474 45.1237 62.2847C45.7277 63.2219 46.0222 64.2668 46.0074 65.4193C45.9925 66.5718 45.5994 67.7913 44.8279 69.0778L40.8937 75.6385ZM40.4495 72.9376L43.1649 68.4094C43.7718 67.3974 44.0709 66.4708 44.0623 65.6296C44.0365 64.7782 43.7959 64.0323 43.3405 63.3918C42.8781 62.7239 42.3025 62.1866 41.6136 61.7799C40.8903 61.3528 40.1415 61.0848 39.3672 60.976C38.593 60.8673 37.8312 61.0097 37.0821 61.4035C36.3329 61.7973 35.6343 62.5345 34.9863 63.6151L32.2863 68.1176L40.4495 72.9376Z" fill="#888888"/>
<path d="M53.8595 29.3518L55.3087 28.3357L74.9102 40.6053L73.0925 41.8798L66.9695 38.0393L59.1337 43.5334L60.7616 50.5258L58.9194 51.8175L53.8595 29.3518ZM65.6194 36.9708L55.9988 30.8562L58.5451 41.931L65.6194 36.9708Z" fill="white"/>
<path d="M80.7598 15.4526L89.2213 34.9998L87.3171 35.8114L83.3604 26.671L71.7418 31.6232L75.6984 40.7636L73.7666 41.587L65.3051 22.0398L67.2369 21.2164L71.0029 29.9163L82.6215 24.9641L78.8555 16.2642L80.7598 15.4526Z" fill="white"/>
<path d="M91.8773 34.6362L87.6925 13.7513L99.5539 11.4111L99.9193 13.2348L90.1182 15.1685L93.9376 34.2297L91.8773 34.6362Z" fill="white"/>
<path d="M119.549 32.2401L119.806 12.8018L111.107 12.6881L110.927 17.1861C110.788 20.1245 110.546 22.5616 110.2 24.4972C109.855 26.4329 109.384 27.9568 108.79 29.0692C108.195 30.1615 107.475 30.9421 106.628 31.4111C105.782 31.8601 104.779 32.077 103.619 32.0618L103.644 30.202C104.424 30.2122 105.117 30.0212 105.722 29.6291C106.327 29.237 106.846 28.5437 107.28 27.5493C107.713 26.5549 108.061 25.1793 108.324 23.4226C108.608 21.6461 108.808 19.3986 108.924 16.6799L109.182 10.8027L121.901 10.9691L121.618 32.2672L119.549 32.2401Z" fill="white"/>
<path d="M122.016 32.3221L126.753 11.5556L128.773 12.0092L124.676 29.9679L141.652 14.9021L143.555 15.3294L138.818 36.0959L136.798 35.6423L140.821 18.0054L124.065 32.7823L122.016 32.3221Z" fill="white"/>
<path d="M138.283 36.006L147.259 16.6897L149.141 17.5509L141.379 34.2555L161.144 23.043L162.917 23.8543L153.942 43.1706L152.059 42.3094L159.682 25.9041L140.192 36.8798L138.283 36.006ZM155.874 18.6521C154.983 18.2443 154.287 17.772 153.787 17.2352C153.313 16.6885 153.027 16.1178 152.928 15.5229C152.838 14.9098 152.911 14.3271 153.145 13.7746L154.646 14.4611C154.445 14.941 154.438 15.4546 154.624 16.002C154.829 16.5576 155.423 17.0601 156.405 17.5094C157.351 17.9421 158.094 18.0736 158.637 17.9037C159.187 17.7157 159.594 17.3629 159.856 16.8452L161.357 17.5317C161.086 18.0675 160.686 18.5005 160.158 18.8306C159.638 19.1425 159.014 19.2973 158.288 19.2947C157.588 19.2824 156.783 19.0682 155.874 18.6521Z" fill="white"/>
<path d="M159.594 34.0768C160.375 33.0381 161.316 32.1544 162.415 31.4257C163.542 30.6929 164.758 30.175 166.063 29.8721C167.379 29.5532 168.724 29.5292 170.097 29.8C171.482 30.0549 172.817 30.6586 174.103 31.6113C175.629 32.7426 176.666 34.0587 177.213 35.5597C177.789 37.0566 177.925 38.5388 177.621 40.0065L175.682 39.839C175.878 38.8141 175.857 37.8775 175.619 37.0293C175.394 36.1651 175.032 35.3989 174.533 34.7308C174.051 34.0746 173.496 33.5143 172.87 33.0499C171.841 32.2878 170.777 31.8227 169.677 31.6547C168.589 31.4707 167.513 31.5198 166.45 31.802C165.414 32.0802 164.441 32.5415 163.531 33.186C162.632 33.8145 161.858 34.5602 161.209 35.4231C160.499 36.3659 159.98 37.3878 159.652 38.4889C159.324 39.5899 159.197 40.6904 159.27 41.7902C159.355 42.8741 159.633 43.9015 160.104 44.8726C160.603 45.8397 161.31 46.6625 162.226 47.3413C162.869 47.8176 163.612 48.194 164.455 48.4705C165.298 48.7469 166.183 48.8678 167.111 48.8331C168.054 48.8103 168.979 48.5623 169.886 48.0892L170.742 49.8443C169.751 50.4293 168.664 50.7435 167.48 50.7869C166.296 50.8304 165.131 50.6646 163.987 50.2894C162.859 49.9261 161.861 49.423 160.993 48.7799C159.82 47.9106 158.93 46.8651 158.322 45.6433C157.727 44.4056 157.381 43.1033 157.283 41.7365C157.213 40.3656 157.377 39.0179 157.773 37.6934C158.181 36.353 158.788 35.1474 159.594 34.0768Z" fill="white"/>
<path d="M167.61 53.7807L183.679 39.7994L185.07 41.373L177.918 47.5957L180.043 50.0011L192.042 49.2637L193.651 51.0847L180.562 51.8564L177.92 65.4482L176.212 63.5148L178.635 51.3064L176.469 48.856L169.001 55.3543L167.61 53.7807Z" fill="white"/>
<path d="M177.821 65.3486L196.441 55.0037L197.458 56.8065L181.356 65.7527L203.945 68.3026L204.903 70.0008L186.284 80.3458L185.267 78.543L201.08 69.7571L178.853 67.1775L177.821 65.3486Z" fill="white"/>
<path d="M185.02 80.1299L205.376 73.8596L205.994 75.8352L188.39 81.2576L209.935 88.4331L210.517 90.2942L190.161 96.5645L189.543 94.5889L206.831 89.2635L185.647 82.1341L185.02 80.1299ZM209.676 81.5756C209.383 80.6403 209.269 79.807 209.334 79.0755C209.423 78.3573 209.656 77.7624 210.033 77.2907C210.428 76.8131 210.91 76.4765 211.477 76.2808L211.97 77.8555C211.479 78.0277 211.092 78.3665 210.81 78.8719C210.534 79.3963 210.557 80.174 210.88 81.2047C211.19 82.1973 211.59 82.838 212.078 83.127C212.586 83.4101 213.12 83.4758 213.68 83.3242L214.173 84.8989C213.594 85.0565 213.005 85.0495 212.406 84.8781C211.827 84.7008 211.295 84.3414 210.812 83.7998C210.353 83.2714 209.974 82.53 209.676 81.5756Z" fill="white"/>
<path d="M198.063 117.17L199.94 117.391L198.902 126.089L197.025 125.869L198.063 117.17Z" fill="white"/>
<path d="M180.929 150.627C181.546 149.598 182.306 148.7 183.209 147.933C184.12 147.193 185.125 146.625 186.225 146.229C187.315 145.851 188.441 145.703 189.604 145.786L189.469 147.761C188.464 147.726 187.518 147.864 186.631 148.176C185.761 148.499 184.976 148.953 184.276 149.538C183.592 150.133 183.029 150.799 182.587 151.537C181.991 152.532 181.647 153.571 181.556 154.656C181.455 155.758 181.576 156.839 181.919 157.901C182.262 158.963 182.8 159.931 183.535 160.806C184.259 161.698 185.131 162.422 186.151 162.978L185.13 163.455L190.777 154.038L192.275 154.923L186.659 164.288L186.59 163.237C187.478 163.738 188.451 164.08 189.507 164.263C190.571 164.473 191.613 164.484 192.635 164.298C193.673 164.121 194.651 163.735 195.569 163.139C196.486 162.542 197.263 161.712 197.901 160.649C198.343 159.911 198.663 159.125 198.861 158.289C199.049 157.471 199.076 156.628 198.944 155.76C198.811 154.892 198.476 154.032 197.937 153.18L199.736 152.222C200.527 153.548 200.948 155.004 200.999 156.59C201.058 158.204 200.578 159.86 199.559 161.558C198.726 162.948 197.719 164.025 196.537 164.79C195.362 165.583 194.106 166.084 192.768 166.292C191.437 166.529 190.111 166.524 188.789 166.277C187.468 166.031 186.238 165.573 185.102 164.902C183.913 164.2 182.88 163.299 182 162.199C181.127 161.126 180.475 159.94 180.042 158.639C179.627 157.349 179.476 156.006 179.59 154.61C179.711 153.241 180.157 151.914 180.929 150.627Z" fill="white"/>
<path d="M178.787 184.386L183.961 178.833L169.636 165.691L171.067 164.154L185.392 177.296L190.566 171.743L191.937 173L180.157 185.643L178.787 184.386Z" fill="white"/>
<path d="M157.664 175.544C158.892 174.683 160.18 174.146 161.527 173.934C162.873 173.723 164.203 173.78 165.515 174.105C166.839 174.447 168.069 175.002 169.204 175.769C170.351 176.552 171.319 177.498 172.108 178.606C172.932 179.762 173.51 181.006 173.843 182.335C174.188 183.681 174.282 185.02 174.125 186.351C173.963 187.71 173.551 188.976 172.889 190.149C172.238 191.338 171.331 192.34 170.169 193.156C168.94 194.017 167.647 194.545 166.288 194.741C164.93 194.936 163.597 194.857 162.289 194.503C160.966 194.161 159.736 193.607 158.601 192.84C157.465 192.073 156.509 191.143 155.731 190.052C154.908 188.895 154.324 187.644 153.979 186.298C153.646 184.968 153.552 183.63 153.697 182.282C153.854 180.951 154.264 179.699 154.926 178.526C155.589 177.353 156.501 176.359 157.664 175.544ZM170.389 179.811C169.716 178.867 168.911 178.063 167.973 177.402C167.047 176.756 166.054 176.293 164.993 176.01C163.945 175.744 162.882 175.683 161.806 175.827C160.725 175.998 159.71 176.417 158.76 177.083C157.761 177.784 157.014 178.613 156.518 179.571C156.017 180.558 155.732 181.588 155.662 182.663C155.588 183.765 155.711 184.851 156.031 185.922C156.351 186.992 156.83 187.975 157.468 188.871C158.141 189.816 158.941 190.611 159.867 191.256C160.793 191.901 161.794 192.359 162.871 192.63C163.931 192.913 164.994 192.974 166.058 192.814C167.122 192.654 168.13 192.24 169.079 191.575C170.062 190.886 170.809 190.056 171.322 189.086C171.818 188.128 172.103 187.097 172.177 185.995C172.247 184.92 172.13 183.842 171.826 182.761C171.506 181.691 171.027 180.707 170.389 179.811Z" fill="white"/>
<path d="M135.703 186.667L139.888 207.552L124.112 210.665L119.927 189.78L121.988 189.373L125.807 208.434L137.462 206.135L133.643 187.074L135.703 186.667Z" fill="white"/>
<path d="M117.383 189.799L117.1 211.098L108.281 210.982C107.361 210.97 106.524 210.769 105.769 210.379C104.994 209.989 104.331 209.461 103.779 208.793C103.228 208.146 102.798 207.42 102.488 206.616C102.179 205.832 102.029 205.03 102.04 204.21C102.056 203.05 102.33 201.954 102.864 200.921C103.377 199.907 104.098 199.087 105.027 198.459C105.955 197.831 107.039 197.525 108.279 197.541L115.179 197.631L115.283 189.772L117.383 189.799ZM115.154 199.491L108.345 199.402C107.505 199.391 106.772 199.612 106.146 200.063C105.519 200.515 105.032 201.109 104.682 201.844C104.332 202.58 104.151 203.378 104.14 204.238C104.128 205.118 104.318 205.93 104.708 206.675C105.098 207.42 105.62 208.007 106.274 208.436C106.909 208.884 107.616 209.113 108.396 209.124L115.025 209.21L115.154 199.491Z" fill="white"/>
<path d="M94.2973 187.528C95.7609 187.856 97.0211 188.447 98.078 189.299C99.1349 190.152 99.9792 191.171 100.611 192.359C101.238 193.566 101.644 194.846 101.827 196.199C102.007 197.571 101.945 198.921 101.642 200.247C101.327 201.631 100.783 202.892 100.01 204.031C99.233 205.189 98.2943 206.156 97.1937 206.934C96.0693 207.727 94.8473 208.272 93.528 208.571C92.2042 208.888 90.8496 208.891 89.4641 208.58C88.0006 208.251 86.7426 207.651 85.6901 206.779C84.6377 205.907 83.8076 204.87 83.1998 203.668C82.5725 202.461 82.167 201.181 81.9833 199.828C81.7997 198.475 81.8569 197.145 82.1549 195.839C82.4707 194.454 83.0171 193.183 83.7941 192.025C84.5666 190.887 85.5053 189.919 86.6103 189.122C87.7108 188.344 88.9208 187.806 90.2401 187.508C91.5594 187.21 92.9118 187.217 94.2973 187.528ZM99.5935 199.786C99.8515 198.655 99.9152 197.522 99.7847 196.386C99.6497 195.269 99.3341 194.224 98.8379 193.252C98.3373 192.299 97.6743 191.474 96.8488 190.776C95.9994 190.093 95.0088 189.625 93.877 189.37C92.6866 189.103 91.5675 189.108 90.5197 189.385C89.4478 189.677 88.4868 190.158 87.6365 190.828C86.7622 191.513 86.0316 192.333 85.4446 193.288C84.8576 194.242 84.4418 195.256 84.1972 196.328C83.9392 197.459 83.8777 198.583 84.0127 199.7C84.1477 200.816 84.4731 201.863 84.9887 202.84C85.4849 203.812 86.1479 204.638 86.9778 205.316C87.8077 205.994 88.7886 206.461 89.9204 206.715C91.0912 206.978 92.2103 206.973 93.2777 206.7C94.3256 206.423 95.2866 205.942 96.1609 205.257C97.0112 204.587 97.7396 203.777 98.3461 202.827C98.9331 201.872 99.3489 200.859 99.5935 199.786Z" fill="white"/>
<path d="M82.2082 195.841C81.6604 197.02 80.9252 198.08 80.0025 199.021C79.0532 199.972 77.9727 200.732 76.7608 201.299C75.5405 201.884 74.2311 202.187 72.8325 202.207C71.4254 202.245 69.9944 201.931 68.5395 201.265C66.8118 200.475 65.5241 199.402 64.6764 198.046C63.8021 196.7 63.3605 195.278 63.3517 193.778L65.2819 193.539C65.3041 194.583 65.5197 195.496 65.9286 196.277C66.3292 197.076 66.8426 197.751 67.469 198.301C68.0771 198.843 68.7358 199.277 69.4451 199.601C70.609 200.134 71.7462 200.368 72.8564 200.304C73.9583 200.259 74.9996 199.987 75.9803 199.49C76.9345 199.003 77.7895 198.35 78.5454 197.53C79.2928 196.728 79.8941 195.837 80.3492 194.858C80.8465 193.788 81.1408 192.68 81.2322 191.534C81.3236 190.388 81.2189 189.285 80.9181 188.223C80.609 187.18 80.1233 186.232 79.461 185.379C78.7721 184.536 77.9094 183.878 76.8727 183.403C76.1453 183.07 75.3406 182.856 74.4588 182.761C73.5769 182.665 72.6865 182.73 71.7873 182.957C70.87 183.175 70.0174 183.61 69.2296 184.261L68.0267 182.721C68.8735 181.943 69.8711 181.409 71.0195 181.121C72.1679 180.833 73.3405 180.753 74.5373 180.883C75.7159 181.004 76.7962 181.29 77.7783 181.739C79.1059 182.347 80.1938 183.185 81.0419 184.255C81.8816 185.343 82.4915 186.546 82.8717 187.864C83.2252 189.191 83.3463 190.544 83.2349 191.923C83.1152 193.319 82.7729 194.625 82.2082 195.841Z" fill="white"/>
<path d="M45.6871 184.192L51.7851 188.711L63.4755 173.179L65.1626 174.429L53.4722 189.961L59.5702 194.48L58.4516 195.966L44.5686 185.678L45.6871 184.192Z" fill="white"/>
<path d="M52.2771 162.467C53.2704 163.591 53.9446 164.807 54.2998 166.115C54.655 167.423 54.7392 168.742 54.5524 170.071C54.3505 171.413 53.9257 172.684 53.2779 173.884C52.615 175.097 51.7705 176.149 50.7445 177.042C49.6732 177.974 48.4892 178.673 47.1925 179.139C45.8807 179.617 44.5496 179.847 43.1992 179.829C41.8205 179.81 40.5085 179.533 39.2631 178.999C38.0026 178.479 36.9022 177.687 35.9619 176.623C34.9687 175.499 34.302 174.276 33.9619 172.955C33.6218 171.634 33.5593 170.31 33.7744 168.982C33.9763 167.64 34.4011 166.369 35.049 165.169C35.6968 163.97 36.5261 162.93 37.537 162.05C38.6083 161.118 39.7999 160.413 41.1117 159.934C42.4084 159.469 43.7395 159.238 45.1049 159.243C46.4553 159.261 47.7532 159.537 48.9986 160.071C50.244 160.604 51.3368 161.403 52.2771 162.467ZM49.354 175.468C50.2291 174.707 50.9482 173.83 51.5113 172.836C52.0594 171.855 52.4185 170.827 52.5887 169.751C52.7438 168.688 52.6921 167.633 52.4337 166.586C52.1469 165.536 51.6194 164.577 50.8513 163.708C50.0434 162.793 49.1331 162.141 48.1202 161.749C47.079 161.356 46.0164 161.181 44.9324 161.223C43.8201 161.263 42.7449 161.496 41.7068 161.922C40.6688 162.348 39.7348 162.922 38.905 163.644C38.0298 164.405 37.3183 165.276 36.7702 166.257C36.2221 167.237 35.8696 168.273 35.7127 169.364C35.5425 170.44 35.5942 171.495 35.8677 172.529C36.1413 173.564 36.6621 174.516 37.4303 175.385C38.2249 176.284 39.1352 176.937 40.1614 177.343C41.1742 177.734 42.2368 177.91 43.3492 177.87C44.4331 177.828 45.5008 177.602 46.5521 177.191C47.5901 176.765 48.5241 176.191 49.354 175.468Z" fill="white"/>
</svg>
