<svg id="Слой_1" data-name="Слой 1" xmlns="http://www.w3.org/2000/svg" viewBox="0 0 265.75 49"><defs><style>.cls-1{fill:#fff;}.cls-2{fill:none;stroke:#fff;stroke-miterlimit:10;stroke-width:2.5px;}</style></defs><path class="cls-1" d="M76.37,17.32H75.25a7.63,7.63,0,0,0-1.47-2.4,4,4,0,0,0-2.07-1.44,7.91,7.91,0,0,0-1.23-.12l-1.3,0h-3v8H68.3a5.57,5.57,0,0,0,1.47-.19A2.92,2.92,0,0,0,71,20.45a3.72,3.72,0,0,0,.68-1.19,7.25,7.25,0,0,0,.45-1.48h1.12v8.7H72.11a7.51,7.51,0,0,0-.45-1.55A4.58,4.58,0,0,0,71,23.64a2.66,2.66,0,0,0-1.15-.73,5.43,5.43,0,0,0-1.53-.19H66.16v6a6,6,0,0,0,.14,1.49,1.4,1.4,0,0,0,.52.84,2.07,2.07,0,0,0,1,.37,13.28,13.28,0,0,0,1.75.09l1.23,0a9.86,9.86,0,0,0,2.42-.3,1.69,1.69,0,0,0,.8-.43,12,12,0,0,0,1.59-2.2,17.08,17.08,0,0,0,1.16-2.21h1.07l-.4,6.5H57.88V31.71c.28,0,.65-.06,1.12-.12a4.62,4.62,0,0,0,1-.2,1.47,1.47,0,0,0,.75-.6,2,2,0,0,0,.19-.92V15.16a2.18,2.18,0,0,0-.16-.87,1.53,1.53,0,0,0-.78-.63,5.29,5.29,0,0,0-1.08-.32c-.46-.1-.8-.16-1-.19V12H76.37Z" transform="translate(-5.45 -2.33)"/><path class="cls-1" d="M103.55,13.15c-.28,0-.67.08-1.18.16a3.12,3.12,0,0,0-1.38.57,2.28,2.28,0,0,0-.77,1.36,13.28,13.28,0,0,0-.23,2.83V33H97.37l-13-16.12v9.79a12,12,0,0,0,.24,2.77,2.6,2.6,0,0,0,.79,1.39,3.46,3.46,0,0,0,1.26.57,13.39,13.39,0,0,0,1.38.34v1.15h-9V31.71a9.86,9.86,0,0,0,1.32-.21A3.8,3.8,0,0,0,81.65,31a2.22,2.22,0,0,0,.78-1.29,12.93,12.93,0,0,0,.22-2.89V16.92a4.21,4.21,0,0,0-.23-1.38,2.9,2.9,0,0,0-.71-1.13,4,4,0,0,0-1.19-.78A6.32,6.32,0,0,0,79,13.18V12h7.85l11.4,14.11V18.22a11.94,11.94,0,0,0-.24-2.8,2.59,2.59,0,0,0-.8-1.36A3.53,3.53,0,0,0,96,13.48q-.84-.24-1.35-.33V12h9Z" transform="translate(-5.45 -2.33)"/><polygon class="cls-2" points="43.01 1.25 43.01 38.83 58.16 38.83 58.16 47.75 63.91 47.75 70.95 38.83 107.01 38.83 107.01 1.25 43.01 1.25"/><path class="cls-1" d="M140.62,24.61c-.23,0-.55.07-.94.14a3.26,3.26,0,0,0-1,.27,1.25,1.25,0,0,0-.62.62,2.13,2.13,0,0,0-.19.94V28.2c0,1.17,0,2,0,2.37s0,.75.06,1a22.48,22.48,0,0,1-3.89,1.35,16.11,16.11,0,0,1-3.79.47,10.1,10.1,0,0,1-3.84-.75,9.63,9.63,0,0,1-3.22-2.13A10.07,10.07,0,0,1,121,27.14a11.58,11.58,0,0,1-.82-4.46,12.15,12.15,0,0,1,.78-4.4,10.38,10.38,0,0,1,2.22-3.53,9.65,9.65,0,0,1,3.32-2.28,10.51,10.51,0,0,1,4.12-.81,10,10,0,0,1,3.06.42,11.38,11.38,0,0,1,2.3,1l.6-1h1.18l.13,7.27h-1.2A20.46,20.46,0,0,0,136,17a8.17,8.17,0,0,0-1.17-2.09A5.52,5.52,0,0,0,133,13.45a5.27,5.27,0,0,0-2.47-.55,5.93,5.93,0,0,0-2.8.64,6.23,6.23,0,0,0-2.15,1.9,9,9,0,0,0-1.37,3,15.53,15.53,0,0,0-.49,4.06,14,14,0,0,0,.48,3.73,9.39,9.39,0,0,0,1.39,3,6.46,6.46,0,0,0,2.27,2.05,6.31,6.31,0,0,0,3.09.75,6.83,6.83,0,0,0,2.36-.39,4.36,4.36,0,0,0,1.5-.84,11.29,11.29,0,0,0,.13-1.54V26.86a3.08,3.08,0,0,0-.17-1.09,1.12,1.12,0,0,0-.69-.69,4.52,4.52,0,0,0-1.31-.33c-.55-.08-1-.12-1.3-.14V23.54h9.11Z" transform="translate(-5.45 -2.33)"/><path class="cls-1" d="M159,26.72l-.44,6.18H142.26v-1l1-.11a3,3,0,0,0,.93-.19,1.25,1.25,0,0,0,.64-.55,2,2,0,0,0,.2-.94V15.19a2.19,2.19,0,0,0-.17-.88,1.28,1.28,0,0,0-.67-.62,5.36,5.36,0,0,0-.94-.34,5.72,5.72,0,0,0-1-.2v-1H151v1a6.49,6.49,0,0,0-1.06.15,8.32,8.32,0,0,0-.95.23,1.11,1.11,0,0,0-.68.6,2.34,2.34,0,0,0-.18.91V29a9.47,9.47,0,0,0,.09,1.5,1.36,1.36,0,0,0,.45.83,1.93,1.93,0,0,0,1,.34,15.3,15.3,0,0,0,1.87.08c.36,0,.74,0,1.13,0a9.43,9.43,0,0,0,1.11-.12,6.28,6.28,0,0,0,1-.24,1.62,1.62,0,0,0,.63-.39,13.11,13.11,0,0,0,1.4-2,16.1,16.1,0,0,0,1.11-2.22Z" transform="translate(-5.45 -2.33)"/><path class="cls-1" d="M169.45,32.9h-9.36v-1l1.14-.09a4.23,4.23,0,0,0,1.06-.18,1.42,1.42,0,0,0,.7-.52,1.59,1.59,0,0,0,.22-.91V15.1a2,2,0,0,0-.16-.86,1.33,1.33,0,0,0-.76-.58,9.72,9.72,0,0,0-1.11-.33,7.6,7.6,0,0,0-1.09-.18v-1h9.36v1a10.38,10.38,0,0,0-1.08.11,8,8,0,0,0-1.1.24,1.19,1.19,0,0,0-.75.57,2,2,0,0,0-.19.88V30a1.67,1.67,0,0,0,.21.85,1.49,1.49,0,0,0,.73.6,6.42,6.42,0,0,0,1,.25,6.79,6.79,0,0,0,1.18.16Z" transform="translate(-5.45 -2.33)"/><path class="cls-1" d="M185,23.36A4.81,4.81,0,0,1,186,25a5.91,5.91,0,0,1,.31,2,5.82,5.82,0,0,1-2,4.55,7.41,7.41,0,0,1-5.06,1.78,9.26,9.26,0,0,1-2.78-.43,10.69,10.69,0,0,1-2.4-1.05l-.63,1.07H172.2l-.2-7.12h1.19a15.67,15.67,0,0,0,.85,2.38,8.41,8.41,0,0,0,1.3,2,6.13,6.13,0,0,0,1.78,1.38,5.81,5.81,0,0,0,4.13.24,3,3,0,0,0,1.22-.74,3.06,3.06,0,0,0,.7-1.14,4.63,4.63,0,0,0,.23-1.5,4.17,4.17,0,0,0-.71-2.33,4.29,4.29,0,0,0-2.09-1.63c-.64-.26-1.36-.54-2.18-.84s-1.53-.6-2.13-.87a7,7,0,0,1-2.73-2.07,5.39,5.39,0,0,1-1-3.35,5.14,5.14,0,0,1,.48-2.21,5.74,5.74,0,0,1,1.38-1.83,6.16,6.16,0,0,1,2-1.2,7,7,0,0,1,2.42-.43,7.14,7.14,0,0,1,2.57.44,12.48,12.48,0,0,1,2.07,1l.6-1h1.18l.11,6.9h-1.18c-.22-.79-.46-1.55-.73-2.27a8,8,0,0,0-1.05-2,4.85,4.85,0,0,0-1.53-1.36,4.62,4.62,0,0,0-2.23-.5,3.36,3.36,0,0,0-2.37.89,2.82,2.82,0,0,0-1,2.18,3.84,3.84,0,0,0,.62,2.24,4.63,4.63,0,0,0,1.84,1.45,20.59,20.59,0,0,0,2.1.89c.69.25,1.35.52,2,.8a14.9,14.9,0,0,1,1.69.86A6.6,6.6,0,0,1,185,23.36Z" transform="translate(-5.45 -2.33)"/><path class="cls-1" d="M210.41,32.9h-8.63v-1l1-.09a2.94,2.94,0,0,0,.91-.18,1.2,1.2,0,0,0,.65-.53,1.83,1.83,0,0,0,.2-.93v-7.4h-9.77V30a2,2,0,0,0,.17.86,1.46,1.46,0,0,0,.67.62,3.67,3.67,0,0,0,.88.26,6.48,6.48,0,0,0,1,.15v1h-8.63v-1l1-.09a2.94,2.94,0,0,0,.91-.18,1.2,1.2,0,0,0,.65-.53,1.94,1.94,0,0,0,.2-.93v-15a1.9,1.9,0,0,0-.19-.86,1.28,1.28,0,0,0-.66-.61,5.08,5.08,0,0,0-1-.33,5.34,5.34,0,0,0-1-.18v-1h8.63v1a7.76,7.76,0,0,0-1,.13,6.89,6.89,0,0,0-.88.22,1.08,1.08,0,0,0-.67.59,2.35,2.35,0,0,0-.17.89v6.45h9.77v-6.3a1.9,1.9,0,0,0-.19-.86,1.28,1.28,0,0,0-.66-.61,5.08,5.08,0,0,0-1-.33,5.34,5.34,0,0,0-1-.18v-1h8.63v1a7.76,7.76,0,0,0-1,.13,6.89,6.89,0,0,0-.88.22,1.08,1.08,0,0,0-.67.59,2.35,2.35,0,0,0-.17.89V30a2,2,0,0,0,.17.86,1.46,1.46,0,0,0,.67.62,3.67,3.67,0,0,0,.88.26,6.48,6.48,0,0,0,1,.15Z" transform="translate(-5.45 -2.33)"/><path class="cls-1" d="M236.48,17.24a6.35,6.35,0,0,1-.63,2.88,5.9,5.9,0,0,1-1.77,2.07,7.46,7.46,0,0,1-2.45,1.2,10.33,10.33,0,0,1-2.82.38h-2.33v6.3a2.13,2.13,0,0,0,.17.9,1.12,1.12,0,0,0,.69.59,4,4,0,0,0,.93.19,11.65,11.65,0,0,0,1.23.11v1h-8.93v-1l1-.11a3,3,0,0,0,.93-.19,1.21,1.21,0,0,0,.64-.55,2,2,0,0,0,.2-.94v-15a2.65,2.65,0,0,0-.15-.92,1.08,1.08,0,0,0-.69-.62,6.53,6.53,0,0,0-1.1-.27c-.37,0-.68-.09-.95-.11v-1H230a7.48,7.48,0,0,1,4.71,1.4A4.47,4.47,0,0,1,236.48,17.24ZM232,20.78a4,4,0,0,0,.66-1.45,6.47,6.47,0,0,0,.16-1.36,7.73,7.73,0,0,0-.2-1.7,4,4,0,0,0-.68-1.51,3.42,3.42,0,0,0-1.35-1.07,5.05,5.05,0,0,0-2.08-.38h-2.06V22.5H228a5.88,5.88,0,0,0,2.57-.49A3.78,3.78,0,0,0,232,20.78Z" transform="translate(-5.45 -2.33)"/><path class="cls-1" d="M255.55,26.72l-.43,6.18H238.87v-1l1-.11a3.19,3.19,0,0,0,.93-.19,1.29,1.29,0,0,0,.64-.55,2,2,0,0,0,.19-.94V15.19a2,2,0,0,0-.17-.88,1.26,1.26,0,0,0-.66-.62,5.52,5.52,0,0,0-.95-.34,5.64,5.64,0,0,0-1-.2v-1h8.77v1a6.8,6.8,0,0,0-1.06.15,8,8,0,0,0-.94.23,1.11,1.11,0,0,0-.68.6,2.18,2.18,0,0,0-.19.91V29a9.25,9.25,0,0,0,.1,1.5,1.31,1.31,0,0,0,.45.83,1.9,1.9,0,0,0,1,.34,15.2,15.2,0,0,0,1.87.08c.36,0,.73,0,1.12,0a9.61,9.61,0,0,0,1.12-.12,6.14,6.14,0,0,0,.94-.24A1.67,1.67,0,0,0,252,31a13.11,13.11,0,0,0,1.4-2,14.78,14.78,0,0,0,1.1-2.22Z" transform="translate(-5.45 -2.33)"/><path class="cls-1" d="M269.91,23.36a4.78,4.78,0,0,1,1,1.61,5.91,5.91,0,0,1,.32,2,5.8,5.8,0,0,1-2,4.55,7.37,7.37,0,0,1-5.05,1.78,9.21,9.21,0,0,1-2.78-.43,11,11,0,0,1-2.41-1.05l-.63,1.07h-1.17l-.2-7.12h1.18a15.65,15.65,0,0,0,.86,2.38,8.41,8.41,0,0,0,1.3,2A6,6,0,0,0,262,31.54a5.19,5.19,0,0,0,2.36.51,5.27,5.27,0,0,0,1.77-.27,3,3,0,0,0,1.22-.74,3.35,3.35,0,0,0,.7-1.14,4.64,4.64,0,0,0,.22-1.5,4.16,4.16,0,0,0-.7-2.33,4.33,4.33,0,0,0-2.09-1.63q-1-.39-2.19-.84c-.82-.31-1.53-.6-2.12-.87a7,7,0,0,1-2.73-2.07,5.4,5.4,0,0,1-1-3.35A5,5,0,0,1,258,15.1a5.86,5.86,0,0,1,1.37-1.83,6.32,6.32,0,0,1,2-1.2,7,7,0,0,1,2.42-.43,7.18,7.18,0,0,1,2.57.44,12.89,12.89,0,0,1,2.07,1l.6-1h1.17l.12,6.9h-1.19c-.21-.79-.45-1.55-.72-2.27a8,8,0,0,0-1.05-2,4.77,4.77,0,0,0-1.54-1.36,4.55,4.55,0,0,0-2.22-.5,3.4,3.4,0,0,0-2.38.89,2.85,2.85,0,0,0-1,2.18,3.78,3.78,0,0,0,.63,2.24,4.6,4.6,0,0,0,1.83,1.45,21.73,21.73,0,0,0,2.11.89c.68.25,1.35.52,2,.8a15,15,0,0,1,1.7.86A6.6,6.6,0,0,1,269.91,23.36Z" transform="translate(-5.45 -2.33)"/><path class="cls-1" d="M14.81,33.12H5.45v-1L6.6,32a4.13,4.13,0,0,0,1.05-.18,1.38,1.38,0,0,0,.7-.52,1.59,1.59,0,0,0,.22-.91V15.32a2,2,0,0,0-.16-.86,1.3,1.3,0,0,0-.76-.58,8.18,8.18,0,0,0-1.11-.32,6.42,6.42,0,0,0-1.09-.19v-1h9.36v1a10.38,10.38,0,0,0-1.08.11,9.79,9.79,0,0,0-1.1.24,1.19,1.19,0,0,0-.75.57,2.14,2.14,0,0,0-.19.88V30.22a1.58,1.58,0,0,0,.22.85,1.46,1.46,0,0,0,.72.6,6.74,6.74,0,0,0,1,.25,6.79,6.79,0,0,0,1.18.16Z" transform="translate(-5.45 -2.33)"/><path class="cls-1" d="M38.75,13.37a6.52,6.52,0,0,0-1.26.24,4.25,4.25,0,0,0-1.22.45,2.09,2.09,0,0,0-.71,1.41,15.84,15.84,0,0,0-.18,2.63V33.32H34.11l-12.6-17V27a12.34,12.34,0,0,0,.23,2.77,2.55,2.55,0,0,0,.69,1.37,3.44,3.44,0,0,0,1.39.61,9.4,9.4,0,0,0,1.39.29v1H16.69v-1A8.46,8.46,0,0,0,18,31.79a3.33,3.33,0,0,0,1.17-.46,2.11,2.11,0,0,0,.71-1.25,15.46,15.46,0,0,0,.19-2.88V17a4,4,0,0,0-.24-1.35,2.42,2.42,0,0,0-.63-1,4.38,4.38,0,0,0-1.43-.82,5.1,5.1,0,0,0-1.45-.38v-1h5.94L34,28.18V18.29a12.38,12.38,0,0,0-.24-2.79,2.16,2.16,0,0,0-.67-1.29,4.56,4.56,0,0,0-1.34-.54,7.17,7.17,0,0,0-1.41-.3v-1h8.45Z" transform="translate(-5.45 -2.33)"/></svg>