<?xml version="1.0" encoding="utf-8"?>
<!-- Generator: Adobe Illustrator 24.1.2, SVG Export Plug-In . SVG Version: 6.00 Build 0)  -->
<svg version="1.1" id="Слой_1" xmlns="http://www.w3.org/2000/svg" xmlns:xlink="http://www.w3.org/1999/xlink" x="0px" y="0px"
	 viewBox="0 0 66 66" style="enable-background:new 0 0 66 66;" xml:space="preserve">
<style type="text/css">
	.st0{fill:none;stroke:#FFFFFF;stroke-miterlimit:10;}
</style>
<g>
	<circle class="st0" cx="32.89" cy="33.21" r="30.59"/>
	<path class="st0" d="M46.33,19.33c-0.53-0.45-1.37-0.52-2.24-0.17h0c-0.91,0.37-25.8,11.04-26.81,11.48
		c-0.18,0.06-1.79,0.66-1.63,2c0.15,1.21,1.44,1.71,1.6,1.76l6.33,2.17c0.42,1.4,1.97,6.55,2.31,7.65c0.21,0.69,0.56,1.59,1.17,1.77
		c0.54,0.21,1.07,0.02,1.41-0.25l3.87-3.59l6.24,4.87l0.15,0.09c0.42,0.19,0.83,0.28,1.22,0.28c0.3,0,0.59-0.06,0.86-0.17
		c0.94-0.38,1.31-1.28,1.35-1.38l4.66-24.25C47.1,20.31,46.71,19.65,46.33,19.33z M29.15,37.44l-2.13,5.69l-2.13-7.11l16.36-12.1
		L29.15,37.44z"/>
</g>
</svg>
