<?xml version="1.0" encoding="utf-8"?>
<!-- Generator: Adobe Illustrator 24.1.2, SVG Export Plug-In . SVG Version: 6.00 Build 0)  -->
<svg version="1.1" id="Слой_1" xmlns="http://www.w3.org/2000/svg" xmlns:xlink="http://www.w3.org/1999/xlink" x="0px" y="0px"
	 viewBox="0 0 66 66" style="enable-background:new 0 0 66 66;" xml:space="preserve">
<a href='https://vk.com/shirochka1'>
<style type="text/css">
	.st0{fill:none;stroke:#FFFFFF;stroke-miterlimit:10;}
</style>
<g>
	<circle class="st0" cx="32.71" cy="32.61" r="30.59"/>
	<path class="st0" d="M32.53,16.34c-9.02,0-16.36,7.34-16.36,16.36s7.34,16.36,16.36,16.36c9.02,0,16.36-7.34,16.36-16.36
		S41.55,16.34,32.53,16.34z M39.62,35.93c1.59,1.41,1.92,1.92,1.98,2c0.66,1.05-0.73,1.17-0.73,1.17h-2.93c0,0-0.71,0.01-1.32-0.4
		c-0.99-0.65-2.03-1.91-2.77-1.69c-0.61,0.18-0.61,1.01-0.61,1.72c0,0.25-0.22,0.37-0.71,0.37s-0.7,0-0.92,0
		c-1.61,0-3.35-0.54-5.09-2.36c-2.46-2.57-4.62-7.74-4.62-7.74s-0.13-0.26,0.01-0.42c0.16-0.18,0.58-0.16,0.58-0.16l2.84,0
		c0,0,0.27,0.05,0.46,0.19c0.16,0.11,0.25,0.32,0.25,0.32s0.48,1.58,1.09,2.58c1.19,1.96,1.74,2.01,2.14,1.8
		c0.59-0.31,0.4-2.39,0.4-2.39s0.03-0.9-0.28-1.29c-0.24-0.31-0.69-0.47-0.89-0.5c-0.16-0.02,0.11-0.3,0.45-0.46
		c0.46-0.2,1.08-0.25,2.14-0.24c0.83,0.01,1.07,0.06,1.4,0.13c0.98,0.23,0.74,0.82,0.74,2.92c0,0.67-0.09,1.62,0.41,1.93
		c0.22,0.14,0.97,0.3,2.3-1.86c0.63-1.03,1.14-2.73,1.14-2.73s0.1-0.19,0.27-0.28c0.17-0.09,0.16-0.09,0.39-0.09
		c0.23,0,2.5-0.02,2.99-0.02c0.5,0,0.96-0.01,1.04,0.29c0.12,0.42-0.37,1.85-1.59,3.41C38.18,34.69,37.95,34.45,39.62,35.93z"/>
</g>
</a>
</svg>
