<?xml version="1.0" encoding="utf-8"?>
<!-- Generator: Adobe Illustrator 24.1.2, SVG Export Plug-In . SVG Version: 6.00 Build 0)  -->
<svg version="1.1" id="Слой_1" xmlns="http://www.w3.org/2000/svg" xmlns:xlink="http://www.w3.org/1999/xlink" x="0px" y="0px"
	 viewBox="0 0 23 11" style="enable-background:new 0 0 23 11;" xml:space="preserve">
<g>
	<path d="M9.69,2.69H9.15C9.01,2.31,8.78,1.92,8.44,1.53c-0.34-0.39-0.67-0.62-1-0.7C7.29,0.8,7.09,0.78,6.84,0.78
		C6.59,0.77,6.38,0.76,6.21,0.76H4.74v3.9h1.04c0.26,0,0.5-0.03,0.71-0.09C6.71,4.51,6.9,4.39,7.08,4.21
		C7.19,4.1,7.3,3.91,7.41,3.63c0.11-0.28,0.18-0.52,0.22-0.72h0.54v4.22H7.63c-0.03-0.2-0.1-0.45-0.22-0.75
		c-0.12-0.3-0.23-0.51-0.33-0.62C6.92,5.59,6.74,5.47,6.52,5.4c-0.21-0.06-0.46-0.1-0.74-0.1H4.74v2.91c0,0.3,0.02,0.54,0.07,0.72
		c0.04,0.18,0.13,0.31,0.25,0.41C5.18,9.44,5.35,9.5,5.55,9.53C5.76,9.56,6.04,9.57,6.4,9.57c0.17,0,0.37,0,0.6-0.01
		c0.23,0,0.44-0.02,0.61-0.04c0.2-0.02,0.39-0.06,0.56-0.11s0.3-0.12,0.39-0.21c0.23-0.23,0.48-0.59,0.77-1.06
		c0.28-0.48,0.47-0.83,0.56-1.07h0.52l-0.19,3.15H0.73V9.67c0.13-0.01,0.31-0.03,0.54-0.06c0.23-0.03,0.39-0.06,0.48-0.1
		c0.18-0.08,0.3-0.17,0.36-0.29C2.19,9.1,2.22,8.96,2.22,8.78V1.65c0-0.17-0.03-0.31-0.08-0.42c-0.05-0.11-0.18-0.21-0.38-0.3
		c-0.12-0.06-0.3-0.11-0.52-0.16C1.02,0.72,0.85,0.69,0.73,0.67V0.12h8.96V2.69z"/>
	<path d="M22.86,0.67c-0.13,0.01-0.32,0.04-0.57,0.08c-0.25,0.04-0.47,0.13-0.67,0.28c-0.18,0.13-0.3,0.35-0.37,0.66
		C21.17,2,21.13,2.46,21.13,3.06v7.22h-1.27l-6.29-7.81v4.74c0,0.59,0.04,1.04,0.12,1.34c0.08,0.31,0.21,0.53,0.38,0.67
		c0.13,0.1,0.33,0.2,0.61,0.28c0.28,0.08,0.5,0.14,0.67,0.16v0.56h-4.34V9.67c0.19-0.01,0.4-0.05,0.64-0.1
		c0.24-0.05,0.44-0.14,0.6-0.25c0.19-0.14,0.31-0.35,0.38-0.62c0.07-0.28,0.1-0.74,0.1-1.4V2.5c0-0.24-0.04-0.46-0.11-0.67
		c-0.07-0.21-0.19-0.39-0.35-0.54C12.11,1.12,11.92,1,11.7,0.9c-0.22-0.09-0.46-0.17-0.74-0.22V0.12h3.8l5.52,6.83V3.13
		c0-0.61-0.04-1.06-0.12-1.36s-0.21-0.52-0.38-0.66c-0.14-0.11-0.34-0.2-0.61-0.28c-0.27-0.08-0.49-0.13-0.66-0.16V0.12h4.34V0.67z"
		/>
</g>
</svg>
